<svg id="Layer_1" data-name="Layer 1" xmlns="http://www.w3.org/2000/svg" viewBox="0 0 24.08 28.36"><defs><style>.cls-1{fill:#010101;}</style></defs><title>pile-ned</title><path class="cls-1" d="M.89,3.49a38.52,38.52,0,0,0,8.67,9.9,1.52,1.52,0,0,0,2.5-.66c1.58-4.48,5.65-7,9.52-9.38A1.5,1.5,0,0,0,20.06.76C15.45,3.57,11,6.64,9.17,11.93l2.51-.66A36.08,36.08,0,0,1,3.48,2C2.48.33-.12,1.84.89,3.49Z"/><path class="cls-1" d="M.58,16A45.06,45.06,0,0,0,10.16,27.6a1.51,1.51,0,0,0,2.5-.66c1.67-5.18,6-8.23,10.42-11.06,1.62-1,.12-3.64-1.51-2.59-5.09,3.29-9.87,6.87-11.8,12.85l2.51-.66a42.62,42.62,0,0,1-9.11-11A1.5,1.5,0,0,0,.58,16Z"/></svg>